<svg width="12" height="21" viewBox="0 0 12 21" fill="none" xmlns="http://www.w3.org/2000/svg">
<path d="M8.78261 1.105L1.0599 9.15699C0.474534 9.76732 0.474534 10.7569 1.0599 11.3672L1.08132 11.3895C1.66668 11.9998 2.61575 11.9998 3.20112 11.3895L10.9238 3.33751C11.5092 2.72719 11.5092 1.73765 10.9238 1.12732L10.9024 1.105C10.317 0.494668 9.36798 0.494668 8.78261 1.105Z" fill="black"/>
<path d="M1.08132 9.10512L1.0599 9.12745C0.474534 9.73778 0.474534 10.7273 1.0599 11.3376L8.78261 19.3896C9.36798 20 10.317 20 10.9024 19.3896L10.9238 19.3673C11.5092 18.757 11.5092 17.7674 10.9238 17.1571L3.20112 9.10512C2.61575 8.49479 1.66668 8.49479 1.08132 9.10512Z" fill="black"/>
</svg>
