<svg width="22" height="28" viewBox="0 0 22 28" fill="none" xmlns="http://www.w3.org/2000/svg">
<path d="M10.9997 12.4C11.5271 12.4 12.0427 12.2436 12.4812 11.9505C12.9197 11.6575 13.2615 11.241 13.4634 10.7538C13.6652 10.2665 13.718 9.73033 13.6151 9.21305C13.5122 8.69577 13.2582 8.22061 12.8853 7.84767C12.5124 7.47473 12.0372 7.22075 11.5199 7.11786C11.0026 7.01497 10.4665 7.06778 9.97919 7.26961C9.49192 7.47144 9.07544 7.81324 8.78242 8.25177C8.48941 8.6903 8.33301 9.20587 8.33301 9.73329C8.33301 10.4405 8.61396 11.1188 9.11406 11.6189C9.61415 12.119 10.2924 12.4 10.9997 12.4ZM10.053 21.6133C10.177 21.7383 10.3244 21.8375 10.4869 21.9051C10.6494 21.9728 10.8237 22.0077 10.9997 22.0077C11.1757 22.0077 11.35 21.9728 11.5124 21.9051C11.6749 21.8375 11.8224 21.7383 11.9463 21.6133L17.3997 16.1466C18.6663 14.8807 19.529 13.2675 19.8787 11.5112C20.2284 9.75493 20.0494 7.93436 19.3643 6.27981C18.6792 4.62525 17.5188 3.21103 16.0299 2.21603C14.541 1.22103 12.7905 0.689941 10.9997 0.689941C9.20889 0.689941 7.45834 1.22103 5.96942 2.21603C4.4805 3.21103 3.32012 4.62525 2.63503 6.27981C1.94995 7.93436 1.77094 9.75493 2.12065 11.5112C2.47035 13.2675 3.33307 14.8807 4.59967 16.1466L10.053 21.6133ZM4.63968 9.11996C4.73077 8.16931 5.03303 7.25101 5.52437 6.43211C6.01572 5.6132 6.68374 4.91437 7.47967 4.38662C8.52528 3.70009 9.74883 3.3343 10.9997 3.3343C12.2505 3.3343 13.4741 3.70009 14.5197 4.38662C15.3103 4.91256 15.9745 5.60716 16.4646 6.42047C16.9548 7.23378 17.2585 8.1456 17.3542 9.09034C17.4498 10.0351 17.3349 10.9893 17.0177 11.8843C16.7005 12.7793 16.1889 13.5929 15.5197 14.2666L10.9997 18.7866L6.47967 14.2666C5.8097 13.5995 5.29691 12.7913 4.97862 11.901C4.66032 11.0107 4.54453 10.0606 4.63968 9.11996ZM20.333 24.6666H1.66634C1.31272 24.6666 0.973581 24.8071 0.723532 25.0571C0.473484 25.3072 0.333008 25.6463 0.333008 26C0.333008 26.3536 0.473484 26.6927 0.723532 26.9428C0.973581 27.1928 1.31272 27.3333 1.66634 27.3333H20.333C20.6866 27.3333 21.0258 27.1928 21.2758 26.9428C21.5259 26.6927 21.6663 26.3536 21.6663 26C21.6663 25.6463 21.5259 25.3072 21.2758 25.0571C21.0258 24.8071 20.6866 24.6666 20.333 24.6666Z" fill="#5F5F5F"/>
</svg>
