<svg width="12" height="21" viewBox="0 0 12 21" fill="none" xmlns="http://www.w3.org/2000/svg">
<path d="M3.20115 1.105L10.9239 9.15699C11.5092 9.76732 11.5092 10.7569 10.9239 11.3672L10.9024 11.3895C10.3171 11.9998 9.36801 11.9998 8.78264 11.3895L1.05994 3.33751C0.474569 2.72719 0.474569 1.73765 1.05994 1.12732L1.08135 1.105C1.66672 0.494668 2.61579 0.494668 3.20115 1.105Z" fill="black"/>
<path d="M10.9024 9.10512L10.9239 9.12745C11.5092 9.73778 11.5092 10.7273 10.9239 11.3376L3.20116 19.3896C2.61579 20 1.66672 20 1.08135 19.3896L1.05994 19.3673C0.474569 18.757 0.474571 17.7674 1.05994 17.1571L8.78265 9.10512C9.36801 8.49479 10.3171 8.49479 10.9024 9.10512Z" fill="black"/>
</svg>
