<svg width="18" height="18" viewBox="0 0 18 18" fill="none" xmlns="http://www.w3.org/2000/svg">
<path d="M0.90918 7.38953C0.90918 6.47644 1.08073 5.62146 1.42383 4.82458C1.76693 4.02218 2.24284 3.31661 2.85156 2.70789C3.46029 2.09916 4.16309 1.62325 4.95996 1.28015C5.76237 0.937052 6.62012 0.765503 7.5332 0.765503C8.44629 0.765503 9.30127 0.937052 10.0981 1.28015C10.9006 1.62325 11.6061 2.09916 12.2148 2.70789C12.8236 3.31661 13.2995 4.02218 13.6426 4.82458C13.9857 5.62146 14.1572 6.47644 14.1572 7.38953C14.1572 8.14766 14.0355 8.86707 13.792 9.54773C13.554 10.2284 13.222 10.8454 12.7959 11.3988L16.855 15.4828C16.9435 15.5713 17.0099 15.6737 17.0542 15.7899C17.104 15.9061 17.1289 16.0306 17.1289 16.1635C17.1289 16.3461 17.0874 16.5121 17.0044 16.6615C16.9269 16.8109 16.8162 16.9271 16.6724 17.0101C16.5285 17.0987 16.3625 17.1429 16.1743 17.1429C16.0415 17.1429 15.9142 17.118 15.7925 17.0682C15.6763 17.024 15.5684 16.9548 15.4688 16.8607L11.3848 12.7684C10.8424 13.1558 10.2448 13.4602 9.5918 13.6815C8.9388 13.9029 8.2526 14.0135 7.5332 14.0135C6.62012 14.0135 5.76237 13.842 4.95996 13.4989C4.16309 13.1558 3.46029 12.6799 2.85156 12.0712C2.24284 11.4624 1.76693 10.7596 1.42383 9.96277C1.08073 9.16036 0.90918 8.30261 0.90918 7.38953ZM2.32861 7.38953C2.32861 8.10893 2.46143 8.78406 2.72705 9.41492C2.99821 10.0402 3.37174 10.5909 3.84766 11.0668C4.3291 11.5427 4.88249 11.9162 5.50781 12.1874C6.13867 12.4585 6.8138 12.5941 7.5332 12.5941C8.2526 12.5941 8.92497 12.4585 9.55029 12.1874C10.1812 11.9162 10.7345 11.5427 11.2104 11.0668C11.6864 10.5909 12.0599 10.0402 12.3311 9.41492C12.6022 8.78406 12.7378 8.10893 12.7378 7.38953C12.7378 6.67013 12.6022 5.99776 12.3311 5.37244C12.0599 4.74158 11.6864 4.18819 11.2104 3.71228C10.7345 3.23083 10.1812 2.8573 9.55029 2.59167C8.92497 2.32052 8.2526 2.18494 7.5332 2.18494C6.8138 2.18494 6.13867 2.32052 5.50781 2.59167C4.88249 2.8573 4.3291 3.23083 3.84766 3.71228C3.37174 4.18819 2.99821 4.74158 2.72705 5.37244C2.46143 5.99776 2.32861 6.67013 2.32861 7.38953Z" fill="#3C3C43" fill-opacity="0.6"/>
</svg>
