<?xml version="1.0" encoding="UTF-8"?>
<svg version="1.1" xmlns="http://www.w3.org/2000/svg" width="512" height="512">
<path d="M0 0 C1.42956779 -0.0098568 1.42956779 -0.0098568 2.88801575 -0.01991272 C6.05278599 -0.03967694 9.21750865 -0.05131704 12.38232422 -0.0612793 C13.46272854 -0.06535482 14.54313286 -0.06943035 15.6562767 -0.07362938 C21.3777828 -0.09450628 27.09926481 -0.10879937 32.82080078 -0.11816406 C38.72556898 -0.12921466 44.62995889 -0.16359463 50.53459358 -0.20333576 C55.07802012 -0.2295124 59.62135683 -0.23785699 64.16485214 -0.24144554 C66.34089581 -0.246311 68.51693547 -0.25792378 70.69290543 -0.27648354 C73.74479107 -0.30089017 76.79570242 -0.29990657 79.84765625 -0.29296875 C81.18838448 -0.31218384 81.18838448 -0.31218384 82.55619812 -0.33178711 C89.39468374 -0.2753316 94.95562443 1.3043544 99.87060547 6.24731445 C100.32564453 6.92536133 100.78068359 7.6034082 101.24951172 8.30200195 C101.72259766 8.98520508 102.19568359 9.6684082 102.68310547 10.37231445 C104.58410893 13.41128885 104.93618877 15.17588909 104.93226624 18.74539185 C104.93432823 20.18833618 104.93432823 20.18833618 104.93643188 21.66043091 C104.93283661 22.71922455 104.92924133 23.77801819 104.92553711 24.86889648 C104.92568314 25.98109558 104.92582916 27.09329468 104.92597961 28.23919678 C104.92528082 31.92942225 104.91748996 35.61959776 104.90966797 39.30981445 C104.90780367 41.8628639 104.90637982 44.4159137 104.90538025 46.96896362 C104.90194725 53.01087112 104.89405919 59.05275703 104.88403076 65.09465587 C104.87286217 71.97244071 104.86735729 78.8502264 104.86233532 85.72801805 C104.85187638 99.87768935 104.83428158 114.02734466 104.81201172 128.17700195 C106.01212891 128.15081787 107.21224609 128.12463379 108.44873047 128.09765625 C112.92884457 128.00671352 117.40887815 127.94959331 121.88964844 127.90234375 C123.82370758 127.87729954 125.75767303 127.84325384 127.69140625 127.79980469 C130.48184403 127.73870546 133.27102382 127.71069144 136.06201172 127.6887207 C137.34531372 127.65001106 137.34531372 127.65001106 138.65454102 127.61051941 C144.92567807 127.60763207 148.91516859 129.27161582 153.81201172 133.17700195 C158.20602801 137.57101824 160.58131061 142.62735078 160.98388672 148.8215332 C160.51760938 160.72825806 152.24088801 168.1945711 144.18579102 176.22314453 C143.22354993 177.19274228 142.2619281 178.16295492 141.3008728 179.13372803 C138.71072816 181.74592101 136.11119245 184.34856377 133.50905204 186.94880128 C131.32958829 189.12814463 129.1544969 191.31182747 126.97925121 193.49537963 C121.84531399 198.64848809 116.70331595 203.79345458 111.55639648 208.93359375 C106.26142508 214.22191782 100.981408 219.5248483 95.70831937 224.8349846 C91.16423528 229.4098223 86.61047902 233.97487617 82.04904872 238.53241843 C79.33182905 241.24757774 76.61845664 243.9663129 73.91458702 246.69477272 C71.37212038 249.25959985 68.81773184 251.81194012 66.25396347 254.35546875 C64.87690117 255.72753021 63.51210255 257.11186637 62.14781189 258.49662781 C56.4272265 264.14057793 51.03815023 268.25772274 42.99169922 269.6730957 C28.66723139 269.30891432 20.72858631 259.23916878 11.15478516 249.71264648 C10.22369934 248.78973816 9.29261353 247.86682983 8.33331299 246.91595459 C5.27567517 243.88425121 2.22322674 240.84735246 -0.82861328 237.80981445 C-1.88597944 236.75781703 -2.94334997 235.70582401 -4.00072479 234.6538353 C-8.39877258 230.27736123 -12.79540111 225.89946956 -17.18832779 221.51785469 C-23.45605067 215.26638789 -29.73213171 209.02358848 -36.02009988 202.79248345 C-40.45880714 198.39254173 -44.88782698 193.98299517 -49.30983329 189.56626976 C-51.94402312 186.93572002 -54.58216758 184.30945697 -57.23078156 181.69342422 C-60.18392495 178.77610246 -63.11676099 175.83913751 -66.04833984 172.90014648 C-66.91906128 172.04583038 -67.78978271 171.19151428 -68.68688965 170.31130981 C-74.43061121 164.50799081 -79.20479017 158.57131083 -79.62548828 150.11450195 C-78.77526524 142.46249461 -76.12374853 136.28511807 -70.18798828 131.17700195 C-64.92002436 127.87129195 -60.64616919 127.77650694 -54.63330078 127.8840332 C-53.28097855 127.89040047 -53.28097855 127.89040047 -51.90133667 127.89689636 C-49.03824263 127.91361138 -46.17586749 127.95125004 -43.31298828 127.98950195 C-41.36508182 128.00455808 -39.41716427 128.01824486 -37.46923828 128.03051758 C-32.70854706 128.06349137 -27.94838932 128.11522382 -23.18798828 128.17700195 C-23.19167545 127.60200455 -23.19536263 127.02700714 -23.19916153 126.43458557 C-23.28763817 112.42024578 -23.35375878 98.40594806 -23.39523697 84.39138794 C-23.41583058 77.61393175 -23.44388935 70.83666241 -23.48974609 64.05932617 C-23.53399089 57.51708683 -23.55713602 50.97496858 -23.56749725 44.43258667 C-23.57487985 41.93835396 -23.5892963 39.44413169 -23.61090851 36.94998169 C-23.64000548 33.4525063 -23.64394149 29.95582919 -23.64208984 26.45825195 C-23.65647095 25.43038071 -23.67085205 24.40250946 -23.68566895 23.3434906 C-23.64423422 16.095942 -22.38149605 10.35243326 -17.11767578 5.1184082 C-16.43962891 4.66336914 -15.76158203 4.20833008 -15.06298828 3.73950195 C-14.37978516 3.26641602 -13.69658203 2.79333008 -12.99267578 2.3059082 C-8.77264181 -0.3338966 -4.85427498 0.0144075 0 0 Z " fill="#000000" transform="translate(215.18798828125,63.822998046875)"/>
<path d="M0 0 C0.94354741 -0.00706559 1.88709482 -0.01413118 2.85923457 -0.02141088 C4.40940615 -0.01778826 4.40940615 -0.01778826 5.99089432 -0.01409245 C7.64139278 -0.02194746 7.64139278 -0.02194746 9.32523465 -0.02996117 C13.02544944 -0.04500569 16.72552649 -0.04566731 20.42576981 -0.04633427 C23.07345029 -0.05395279 25.72111908 -0.06233066 28.36879349 -0.07155704 C35.5713428 -0.09440754 42.77386265 -0.10232778 49.97644329 -0.10738349 C54.47450258 -0.11064062 58.97255331 -0.11716322 63.47060776 -0.12438488 C75.92652867 -0.1439513 88.38244163 -0.16035512 100.83837891 -0.16326141 C102.03403199 -0.16354277 102.03403199 -0.16354277 103.25383969 -0.16382981 C104.86973715 -0.16419606 106.48563461 -0.16455975 108.10153207 -0.16492092 C109.30472018 -0.16519514 109.30472018 -0.16519514 110.53221512 -0.16547489 C111.33532062 -0.16565544 112.13842612 -0.16583599 112.96586815 -0.16602201 C125.9774014 -0.16956322 138.9887691 -0.19658202 152.00024495 -0.23397278 C165.36168571 -0.27206166 178.72304435 -0.29141893 192.08454061 -0.29172093 C199.58543868 -0.29230539 207.08613931 -0.30078984 214.58698654 -0.32971859 C220.97451957 -0.35424039 227.36178314 -0.36151019 233.74935052 -0.34647106 C237.00722477 -0.33930499 240.26445676 -0.34287094 243.52229309 -0.36288166 C247.05802768 -0.38327512 250.59238475 -0.37282774 254.12810135 -0.35466862 C255.15262618 -0.36786858 256.17715101 -0.38106855 257.23272204 -0.39466852 C264.64078002 -0.30778385 269.44731399 1.59597288 274.83569026 6.70272928 C279.19443664 11.51919789 280.83282544 16.5773511 280.62205887 23.04912472 C279.62588309 30.18628283 276.81031431 35.6198856 271.19237137 40.10381222 C265.41022446 43.66205647 260.21339651 43.54754022 253.59170914 43.52748775 C251.95217969 43.53428442 251.95217969 43.53428442 250.27952844 43.5412184 C246.61005248 43.55389781 242.94072426 43.55223972 239.27122879 43.55058956 C236.64310896 43.55657259 234.0149909 43.56337761 231.38687515 43.57094479 C224.98465619 43.58755128 218.58247405 43.59305418 212.18023535 43.59416954 C206.97542132 43.59512021 201.77061944 43.59923143 196.56580925 43.60557079 C181.80541152 43.62318246 167.04504286 43.63240981 152.28463455 43.63090985 C151.48904854 43.63082993 150.69346253 43.63075002 149.87376785 43.63066769 C149.07720909 43.63058593 148.28065032 43.63050416 147.4599534 43.63041992 C134.55197231 43.62960711 121.64410793 43.64874389 108.7361606 43.67694442 C95.47864987 43.70567982 82.22119605 43.71948435 68.96365339 43.71775687 C61.52204765 43.71709318 54.08056426 43.72257614 46.63898659 43.74411297 C40.30273878 43.76233346 33.96666878 43.7666651 27.6304061 43.75309412 C24.3989366 43.7465686 21.16787855 43.74860982 17.93642807 43.76380062 C14.42937116 43.77921907 10.92320944 43.76996615 7.41617203 43.75453854 C5.89208081 43.76996923 5.89208081 43.76996923 4.33719987 43.78571165 C-3.48255804 43.70971489 -8.85768427 42.02604948 -14.49903488 36.51006222 C-18.49574687 30.57209012 -20.89439361 24.54839157 -19.68653488 17.26006222 C-17.54843714 9.78944689 -13.53514393 5.08165602 -6.86811519 1.20185322 C-4.39878817 0.1358416 -2.68175302 0.0064247 0 0 Z " fill="#000000" transform="translate(125.6865348815918,383.7399377822876)"/>
</svg>
